<svg xmlns="http://www.w3.org/2000/svg" xmlns:xlink="http://www.w3.org/1999/xlink"><defs><symbol viewBox="0 0 64 64" id="ic-mt5-advanced"><g fill="none" fill-rule="evenodd"><circle cx="32" cy="32" r="32" fill="#C7E5E5" fill-rule="nonzero" /><path fill="#84ABAE" fill-rule="nonzero" d="M37.2 29.76a3.72 3.72 0 016.32 0l4 6.68 4 6.72c.013.12.013.24 0 .36a3.4 3.4 0 01-4.96 4l-4-2.32a4.8 4.8 0 00-4.64 0M27.24 29.72a4 4 0 00-6.56 0l-4 6.72-4 6.72v.32c-1.36 2.88 2.24 5.6 5.12 4l4.2-2.32a5.08 5.08 0 014.84 0" /><path fill="#84ABAE" fill-rule="nonzero" d="M33.36 8.36A2.92 2.92 0 0032 8a2.88 2.88 0 00-1.32.36C26.72 10.24 20 19.32 20 30.28A32 32 0 0024.72 48h14.56A31.56 31.56 0 0044 30.28c0-10.96-6.68-20.04-10.64-21.92z" /><ellipse cx="32" cy="23.76" fill="#C7E5E5" fill-rule="nonzero" rx="4" ry="4.12" /><path fill="#84ABAE" fill-rule="nonzero" d="M30.72 55.12L28 49.4a1.52 1.52 0 01.24-1.64l2.56-3.24a1.4 1.4 0 012.16 0l2.56 3.24a1.52 1.52 0 01.24 1.64l-2.6 5.72a1.36 1.36 0 01-2.44 0z" /><path d="M0 0h64v64H0z" /></g></symbol><symbol viewBox="0 0 118 85" id="ic-mt5-device-desktop"><g fill="none" fill-rule="evenodd"><g transform="translate(47 27)"><rect width="24" height="24" fill="#85ACB0" fill-rule="nonzero" rx="4.5" /><path fill="#FFF" fill-rule="nonzero" d="M13.931 8.059l-1.71-3.424a.248.248 0 00-.442 0L10.08 8.033 12 11.91l1.931-3.851zm-4.267 2.464l1.102 2.227-.165.322-.75 1.5H7.642l1.193-2.38.829-1.658v-.011zm0-1.65l-1.5 3-1.729 3.457h3.862l.953-1.939.341-.641-1.923-3.889-.004.011zm4.395 7.17l1.717 3.457h3.477a.248.248 0 00.22-.375l-1.548-3.082h-3.866zm.285-5.502l.821 1.639 1.193 2.381h-2.206l-.907-1.811 1.099-2.201v-.008zm0-1.646L12.42 12.75l1.271 2.565h3.863l-1.729-3.469-1.5-2.959.019.008zm-4.403 7.148H6.075l-1.549 3.1a.248.248 0 00.221.376h3.466l1.728-3.476zm2.832.742l.982 1.965h-3.518l.99-1.976h1.546v.011zm.46-.761H10.77L9.041 19.5h5.91l-1.717-3.457v-.02z" /><path d="M0 0h24v24H0z" /><path d="M0 0h24v24H0z" /></g><path stroke="#C6E4E4" stroke-width="2" d="M42.477 84h33.046l-3.2-8H45.677l-3.2 8z" /><rect width="116" height="75" x="1" y="1" stroke="#C6E4E4" stroke-width="2" rx="4" /><path stroke="#C6E4E4" stroke-linecap="round" stroke-width="2" d="M32 84h54" /><rect width="106" height="65" x="6" y="6" stroke="#C6E4E4" stroke-width="2" rx="3" /></g></symbol><symbol viewBox="0 0 75 51" id="ic-mt5-device-laptop"><g fill="none" fill-rule="evenodd"><g transform="translate(30 15)"><rect width="16" height="16" fill="#85ACB0" fill-rule="nonzero" rx="3" /><path fill="#FFF" fill-rule="nonzero" d="M9.287 5.372L8.147 3.09a.165.165 0 00-.295 0L6.72 5.355 8 7.94l1.287-2.568zM6.442 7.015L7.178 8.5l-.11.215-.5 1H5.095l.795-1.588.553-1.105v-.007zm0-1.1l-1 2L4.29 10.22h2.575L7.5 8.927l.228-.427-1.283-2.593-.003.008zm2.931 4.78L10.518 13h2.317a.165.165 0 00.147-.25l-1.032-2.055H9.373zm.19-3.668l.547 1.093.795 1.588h-1.47L8.83 8.5l.732-1.468v-.005zm0-1.097L8.28 8.5l.848 1.71h2.575L10.55 7.897l-1-1.972.012.005zm-2.935 4.765H4.05l-1.032 2.067a.165.165 0 00.147.25h2.31l1.153-2.317zm1.887.495l.655 1.31H6.825l.66-1.318h1.03v.008zm.307-.508H7.18L6.028 13h3.94l-1.146-2.305v-.013z" /><path d="M0 0h16v16H0z" /><path d="M0 0h16v16H0z" /></g><rect width="59" height="35" x="8" y="5" stroke="#C6E4E4" stroke-width="2" rx="2" /><path stroke="#C6E4E4" stroke-width="2" d="M2 44a1 1 0 00-1 1v2a3 3 0 003 3h67a3 3 0 003-3v-2a1 1 0 00-1-1H2zm2 0h67V4a3 3 0 00-3-3H7a3 3 0 00-3 3v40z" /><path stroke="#C6E4E4" stroke-width="2" d="M33 44v1a1 1 0 001 1h8a1 1 0 001-1v-1H33z" /></g></symbol><symbol viewBox="0 0 48 74" id="ic-mt5-device-phone"><g fill="none" fill-rule="evenodd"><g transform="translate(16 29)"><rect width="16" height="16" fill="#85ACB0" fill-rule="nonzero" rx="3" /><path fill="#FFF" fill-rule="nonzero" d="M9.287 5.372L8.147 3.09a.165.165 0 00-.295 0L6.72 5.355 8 7.94l1.287-2.568zM6.442 7.015L7.178 8.5l-.11.215-.5 1H5.095l.795-1.588.553-1.105v-.007zm0-1.1l-1 2L4.29 10.22h2.575L7.5 8.927l.228-.427-1.283-2.593-.003.008zm2.931 4.78L10.518 13h2.317a.165.165 0 00.147-.25l-1.032-2.055H9.373zm.19-3.668l.547 1.093.795 1.588h-1.47L8.83 8.5l.732-1.468v-.005zm0-1.097L8.28 8.5l.848 1.71h2.575L10.55 7.897l-1-1.972.012.005zm-2.935 4.765H4.05l-1.032 2.067a.165.165 0 00.147.25h2.31l1.153-2.317zm1.887.495l.655 1.31H6.825l.66-1.318h1.03v.008zm.307-.508H7.18L6.028 13h3.94l-1.146-2.305v-.013z" /><path d="M0 0h16v16H0z" /><path d="M0 0h16v16H0z" /></g><rect width="46" height="72" x="1" y="1" stroke="#C6E4E4" stroke-width="2" rx="4" /><path stroke="#C6E4E4" stroke-width="2" d="M1 11h46V4a3 3 0 00-3-3H4a3 3 0 00-3 3v7z" /><circle cx="23.5" cy="6.5" r="1.5" stroke="#C6E4E4" /><path stroke="#C6E4E4" stroke-width="2" d="M1 61v9a3 3 0 003 3h40a3 3 0 003-3v-9H1z" /><circle cx="24" cy="67" r="2.5" stroke="#C6E4E4" /></g></symbol><symbol viewBox="0 0 133 106" id="ic-mt5-device-tablet"><g fill="none" fill-rule="evenodd"><g transform="translate(54 42)"><rect width="24" height="24" fill="#85ACB0" fill-rule="nonzero" rx="4.5" /><path fill="#FFF" fill-rule="nonzero" d="M13.931 8.059l-1.71-3.424a.248.248 0 00-.442 0L10.08 8.033 12 11.91l1.931-3.851zm-4.267 2.464l1.102 2.227-.165.322-.75 1.5H7.642l1.193-2.38.829-1.658v-.011zm0-1.65l-1.5 3-1.729 3.457h3.862l.953-1.939.341-.641-1.923-3.889-.004.011zm4.395 7.17l1.717 3.457h3.477a.248.248 0 00.22-.375l-1.548-3.082h-3.866zm.285-5.502l.821 1.639 1.193 2.381h-2.206l-.907-1.811 1.099-2.201v-.008zm0-1.646L12.42 12.75l1.271 2.565h3.863l-1.729-3.469-1.5-2.959.019.008zm-4.403 7.148H6.075l-1.549 3.1a.248.248 0 00.221.376h3.466l1.728-3.476zm2.832.742l.982 1.965h-3.518l.99-1.976h1.546v.011zm.46-.761H10.77L9.041 19.5h5.91l-1.717-3.457v-.02z" /><path d="M0 0h24v24H0z" /><path d="M0 0h24v24H0z" /></g><rect width="131" height="104" x="1" y="1" stroke="#C6E4E4" stroke-width="2" rx="8" /><circle cx="8.5" cy="53.5" r="1.5" stroke="#C6E4E4" /><circle cx="124" cy="53" r="2" stroke="#C6E4E4" /><rect width="102" height="89" x="15" y="9" stroke="#C6E4E4" stroke-width="2" rx="4" /></g></symbol><symbol viewBox="0 0 64 64" id="ic-mt5-standard"><g fill="none" fill-rule="evenodd"><path fill="#C6E4E4" fill-rule="nonzero" d="M35.75 36.555l3.75-1.435 17.935 4.035.045-4.935L51.42 31v-2.115a.88.88 0 00-.855-.885h-1.76a.88.88 0 00-.89.875v.285l-5.38-2.875V24.46a.88.88 0 00-.87-.89h-1.76a.88.88 0 00-.89.875l-3.16-1.675.095-10.69c.04-4.075-3.7-6.375-3.7-6.375S28.5 7.925 28.465 12l-.095 10.69-3.185 1.615a.88.88 0 00-.875-.89h-1.76a.88.88 0 00-.89.875v1.83l-5.44 2.74v-.29a.88.88 0 00-.875-.89h-1.76a.88.88 0 00-.885.875v2.115l-6.155 3.1-.045 4.935L24.5 35l3.745 1.5-.04 4.29s.09 3.305.455 7.08l-7.72 4.5v2.815l9.23-1.345c.425 2.05 1 3.745 1.71 4.5.74-.735 1.33-2.415 1.79-4.46l9.095 1.5v-2.82l-7.635-4.65a114.5 114.5 0 00.585-7.07l.035-4.285z" /><path fill="#85ACB0" fill-rule="nonzero" d="M36.17 48.54l-1.04-.63s-.695 4.13-1.5 5.93l1.265.21a41.88 41.88 0 001.275-5.51zm-7.5-.685l-1.05.61c.282 1.87.684 3.718 1.205 5.535l1.325-.19c-.75-1.815-1.5-5.955-1.5-5.955h.02zm8.79-24.26l-1.585-.84-.125 13.8 1.6-.61zm-10.695-.09l-.11 12.345 1.58.63.125-13.785z" opacity=".39" /><path fill="#84ABAE" fill-rule="nonzero" d="M37.38 32.445l-.03 3.5 2.17-.825 17.935 4.035.02-2.19zm-10.69-.095l-.03 3.5-2.155-.865L6.5 38.705l.02-2.19zm1.91 20.815l-7.675 1.12v.87l7.9-1.155c-.07-.245-.145-.5-.225-.835zm19.315-24.31v.285l-5.38-2.855V24.46a.88.88 0 00-.87-.89h-1.76a.88.88 0 00-.89.875L51.42 31v-2.115a.88.88 0 00-.855-.885h-1.76a.88.88 0 00-.89.855zm-23.605-5.44h-1.76a.88.88 0 00-.89.875v1.83l-5.44 2.74v-.29a.88.88 0 00-.875-.89h-1.76a.88.88 0 00-.885.875v2.115l12.5-6.35a.88.88 0 00-.89-.905zm10.84 29.81c-.085.31-.165.59-.23.825h-.03l7.885 1.295v-.87l-7.625-1.25z" /><path fill="#84ABAE" fill-rule="nonzero" d="M35.15 53.225l-1.195-.2c-.1.3-.2.58-.3.815l1.265.21c.065-.235.145-.5.23-.825zM28.825 54l1.325-.19a9.84 9.84 0 01-.285-.81l-1.265.165c.08.335.155.59.225.835zm8.555-21.555l-1.59-.355-.04 4.465 1.6-.61zm-10.69-.095v.005l-.035 3.495 1.58.63.04-4.465zm8.435-20.635a5.67 5.67 0 00-.125-.84 1.695 1.695 0 00-1.29-1.31 7.21 7.21 0 00-3-.025 1.705 1.705 0 00-1.315 1.285 6.33 6.33 0 00-.125.835 5.655 5.655 0 015.855.055z" /><circle cx="32" cy="32" r="32" fill="#C6E4E4" fill-rule="nonzero" /><path fill="#84ABAE" fill-rule="nonzero" d="M36 36h4l16 4v-4L36 24v-8a14.36 14.36 0 00-4-8 14.92 14.92 0 00-4 8v8L8 36v3.72L24 36h4v12l-8 4.56V56l12-4 12 4v-3.44L36 48V36z" /><path fill="#C6E4E4" fill-rule="nonzero" d="M35 14.88v-.72c0-.6-.68-1.92-1.32-2.04a8.88 8.88 0 00-3.08 0c-.64 0-1.2 1.44-1.32 2a5.16 5.16 0 000 .76 6.72 6.72 0 015.72 0z" /><path d="M0 0h64v64H0z" /></g></symbol><symbol viewBox="0 0 64 64" id="ic-mt5-synthetic-indices"><g fill="none" fill-rule="evenodd"><circle cx="32" cy="32" r="32" fill="#C6E4E4" fill-rule="nonzero" /><path fill="#84ABAE" fill-rule="nonzero" d="M56 40.96s-.68-12.96-.68-14.08c.09-5.905-4.615-10.77-10.52-10.88H19.72A10.68 10.68 0 009.24 26.88c0 .68-1.2 14.08-1.2 14.08-.6 7.08 7.28 9.56 12.44 4l6.44-7.16h10.16l6.44 7.04C48.68 50.52 56.56 48 56 40.96z" /><rect width="4" height="12" x="20" y="20" fill="#C6E4E4" fill-rule="nonzero" rx=".5" /><rect width="4" height="12" x="20" y="20" fill="#C6E4E4" fill-rule="nonzero" rx=".5" transform="rotate(90 22 26)" /><path d="M0 0h64v64H0z" /><rect width="4" height="4" x="40" y="28" fill="#C6E4E4" fill-rule="nonzero" rx=".25" /><rect width="4" height="4" x="44" y="24" fill="#C6E4E4" fill-rule="nonzero" rx=".25" /><rect width="4" height="4" x="40" y="20" fill="#C6E4E4" fill-rule="nonzero" rx=".26" /><path fill="#C6E4E4" fill-rule="nonzero" d="M40 24.26v3.48a.26.26 0 01-.26.26h-3.48a.26.26 0 01-.26-.26v-3.48a.26.26 0 01.26-.26h3.48a.26.26 0 01.26.26z" /><circle cx="27.24" cy="36.76" r="3.24" fill="#84ABAE" fill-rule="nonzero" /><ellipse cx="36.72" cy="36.84" fill="#84ABAE" fill-rule="nonzero" rx="3.28" ry="3.16" /></g></symbol></defs></svg>