<svg xmlns="http://www.w3.org/2000/svg" xmlns:xlink="http://www.w3.org/1999/xlink"><defs><symbol viewBox="0 0 16 16" id="ic-tradetype-asiand"><g fill="none"><path fill="var(--fill-color1)" d="M6.913 8.383H.18V6.265h15.752v2.118H9.885l3.907 3.966v-.991a2.14 2.14 0 012.14-2.141v6.76H9.285c0-1.171.946-2.118 2.118-2.118h.924L6.913 8.383zM.135 12.35h8.158v2.119H.135V12.35zM15.91.203v2.14H3.944L1.803.204H15.91z" /><path fill="var(--fill-color2)" d="M4.935 5.025L.135.27v2.975l1.78 1.78z" /></g></symbol><symbol viewBox="0 0 16 16" id="ic-tradetype-asianu"><g fill="none"><path fill="var(--fill-color1)" d="M9.795 7.797h6.025v2.118H.068V7.797h6.755l5.414-5.476h-.924A2.116 2.116 0 019.194.203h6.648v6.76c-1.194-.022-2.14-.969-2.14-2.14V3.83L9.794 7.797zM.045 1.69h8.158v2.118H.045V1.69zM15.82 15.955H1.69l2.141-2.118H15.82v2.118z" /><path fill="var(--fill-color2)" d="M4.845 11.155l-4.8 4.755v-2.997l1.78-1.758z" /></g></symbol><symbol viewBox="0 0 16 16" id="ic-tradetype-call"><g fill="none"><path d="M0 0h16v16H0z" class="transparent" /><path fill="var(--fill-color1)" d="M8.721.162c0 1.13.902 2.03 1.983 2.03h1.848l-7.55 7.731v2.885l8.97-9.185v1.892c0 1.131.901 2.031 1.983 2.031V.138H8.72v.024z" /><path fill="var(--fill-color2)" d="M.135 12.808v2.123h2.817l2.05-2.123z" /></g></symbol><symbol viewBox="0 0 16 16" id="ic-tradetype-call-barrier"><g fill="none"><path d="M0 0h16v16H0z" class="transparent" /><path fill="var(--fill-color1)" d="M7.234 9.316l5.183-5.193H10.14a1.988 1.988 0 01-1.983-1.988h7.662v5.713h-1.983V5.523L10.05 9.316h5.769v1.987H.045V9.316h7.189z" /><path fill="var(--fill-color2)" d="M3.425 15.91H.045v-3.387h2.073v1.874l1.87-1.874h2.818z" /></g></symbol><symbol viewBox="0 0 16 16" id="ic-tradetype-calle-light"><path fill="var(--fill-color1)" d="M6.671 8l3.422-4.79A.5.5 0 0110.5 3h1.79l-1.144-1.147a.5.5 0 11.708-.706l1.963 1.966a.499.499 0 010 .774l-1.963 1.966a.5.5 0 01-.708-.706L12.291 4h-1.534L7.9 8h4.6a.5.5 0 110 1H7.186l-1.28 1.79a.5.5 0 01-.76.064l-2-2A.498.498 0 013.5 8h3.171zm-.714 1h-1.25l.73.73.52-.73zm6.897-2.147a.5.5 0 01-.708-.706l1.997-2a.5.5 0 11.707.706l-1.996 2z" /></symbol><symbol viewBox="0 0 16 16" id="ic-tradetype-callspread"><g fill="none"><path d="M0 0h16v16H0z" /><path fill="var(--fill-color1)" d="M0 0h6.56v1.996H0zm0 14h16v1.996H0zm15.984-7h-4.988L9 8.996h3.167l-.572.58a1.981 1.981 0 000 2.818l4.389-4.396V7z" /><path fill="var(--fill-color2)" d="M7.741 0v.343a1.653 1.653 0 001.676 1.653h1.524L5.829 7.063H0v1.996h6.651l5.654-5.653V5.69H14.3V0H7.74z" /></g></symbol><symbol viewBox="0 0 16 16" id="ic-tradetype-digitdiff"><g fill="none"><path d="M0 0h16v16H0z" class="transparent" /><path fill="var(--fill-color1)" d="M3.493.654l5.746 5.723-5.746 5.747c-.766-.789-.789-2.028 0-2.817l1.848-1.848H.045V5.476H5.5L3.493 3.47a1.973 1.973 0 010-2.816zm3.448 11.808h1.983v3.493H6.94v-3.493zM6.94.18h1.983v1.893H6.94V.18z" /><path fill="var(--fill-color2)" d="M15.82 8.563h-4.305l1.848-1.848c.767-.766.767-2.028 0-2.816L10.051 7.21a.844.844 0 010 1.172l-1.826 1.825 5.138 5.138c.609-.923.474-2.343-.315-3.132l-1.69-1.69h4.44v-1.96h.022z" /></g></symbol><symbol viewBox="0 0 16 16" id="ic-tradetype-digiteven"><g fill="none"><path d="M0 0h16v16H0z" class="transparent" /><path fill="var(--fill-color2)" d="M.135 6.49V.158h6.333V6.49H.135zm4.125-4.1H2.366v1.893H4.26V2.389zM9.6 16V9.668h6.332V16H9.6zm4.101-4.124h-1.893v1.893h1.893v-1.893z" /><path fill="var(--fill-color1)" d="M9.6.158h6.332V6.49H9.6V.158zm2.208 4.124h1.893V2.389h-1.893v1.893zM.135 16V9.668h6.333V16H.135zm4.124-4.124H2.366v1.893H4.26v-1.893z" /></g></symbol><symbol viewBox="0 0 16 16" id="ic-tradetype-digitmatch"><g fill="none"><path d="M0 0h16v16H0z" /><path fill="var(--fill-color1)" d="M3.556 2.231l5.666 5.724L3.556 13.7c-.756-.788-.778-2.028 0-2.816l1.822-1.848H.156V7.054h5.377L3.556 5.048a1.992 1.992 0 010-2.817zm3.377 10.231H8.89v3.47H6.933v-3.47zm0-12.304H8.89v3.56H6.933V.158z" /><path fill="var(--fill-color2)" d="M12.156 2.344c.755.788.755 2.05-.023 2.817l-1.466 1.487L9.289 5.25l2.867-2.907zm0 11.493L9.2 10.817l1.378-1.397 1.578 1.6c.755.788.755 2.05 0 2.817zm-1.223-4.778l1.045-1.082-.911-.923h4.622v2.005h-4.756z" /></g></symbol><symbol viewBox="0 0 16 16" id="ic-tradetype-digitodd"><g fill="none"><path d="M0 0h16v16H0z" class="transparent" /><path fill="var(--fill-color2)" d="M11.628 7.827H4.237L7.91 2l3.718 5.827zM7.256 6.155h1.352l-.676-1.068-.676 1.068z" /><path fill="var(--fill-color1)" d="M7.46 14.86H.067L3.74 9.035l3.718 5.827zm-4.395-1.67h1.352l-.677-1.07-.676 1.068zm12.755 1.67H8.428l3.673-5.826 3.719 5.827zm-4.372-1.67H12.8l-.676-1.069-.676 1.068z" /></g></symbol><symbol viewBox="0 0 16 16" id="ic-tradetype-digitover"><g fill="none"><path d="M0 0h16v16H0z" class="transparent" /><path fill="var(--fill-color2)" d="M6.513 12.544L3.02 15.912H.203l4.89-4.746z" /><path fill="var(--fill-color1)" d="M.045 11.034H15.82v1.925H.045v-1.925zM13.837 8.06V5.412l-5.792 5.622V8.3l4.372-4.244H9.69c-1.104 0-1.983-.875-1.983-1.925h8.113v7.875c-1.105 0-1.983-.875-1.983-1.947z" /></g></symbol><symbol viewBox="0 0 16 16" id="ic-tradetype-digitunder"><g fill="none"><path d="M0 0h16v16H0z" class="transparent" /><path fill="var(--fill-color2)" d="M6.603 5.478L3.11 2.088H.293l4.913 4.768z" /><path fill="var(--fill-color1)" d="M.135 5.04H15.91v1.926H.135V5.04zm13.792 4.9c0-1.071.901-1.924 1.983-1.946v7.875H7.797c0-1.05.88-1.925 1.983-1.925h2.727L8.135 9.7V6.966l5.792 5.621V9.941z" /></g></symbol><symbol viewBox="0 0 16 16" id="ic-tradetype-expirymiss"><g fill="none"><path fill="var(--fill-color1)" d="M11.628 8.36l4.124-4.123L11.606.09a2.013 2.013 0 000 2.817l.338.338H6.806v1.983h5.138l-.316.316c-.789.766-.789 2.028 0 2.817z" /><path fill="var(--fill-color2)" d="M.045 6.287H9.69V8.27H.045V6.287zm15.775.023v1.96h-1.96l1.96-1.96zM.045 13.972H15.82v1.983H.045v-1.983z" /></g></symbol><symbol viewBox="0 0 16 16" id="ic-tradetype-expiryrange"><g fill="none"><path fill="var(--fill-color1)" d="M6.76 8.924h5.296l-.586.586c-.766.766-.766 2.028 0 2.817l4.395-4.395-4.35-4.349a2.013 2.013 0 000 2.817l.541.54H6.761v1.984z" /><path fill="var(--fill-color2)" d="M.135.068H15.91V2.05H.135V.068zm0 13.769H15.91v1.983H.135v-1.983z" /></g></symbol><symbol viewBox="0 0 16 16" id="ic-tradetype-expiryrangee"><g fill="var(--fill-color1)"><rect width="16" height="1" y="4.5" rx=".5" transform="rotate(180 8 5)" /><rect width="16" height="1" y="10.5" rx=".5" transform="rotate(180 8 11)" /><path d="M13.646 9.146a.5.5 0 10.708.708l1.5-1.5a.5.5 0 000-.708l-1.5-1.5a.5.5 0 10-.708.708L14.793 8l-1.147 1.146z" /><path d="M15.5 7.5h-5a.5.5 0 000 1h5a.5.5 0 100-1z" /></g></symbol><symbol viewBox="0 0 16 16" id="ic-tradetype-notouch"><g fill="none"><path d="M0 0h16v16H0z" class="transparent" /><path fill="var(--fill-color1)" d="M.068.07h15.774V2.1H.068V.07zm13.769 8.007c0-1.13.878-2.03 1.983-2.054v6.646H9.33c0-1.107.878-2.03 1.983-2.03h1.104L9.059 7.2l-5.363 5.515V9.831l5.363-5.516 4.778 4.893V8.077z" /><path fill="var(--fill-color2)" d="M.068 12.692v2.123h1.6l2.05-2.123z" /></g></symbol><symbol viewBox="0 0 16 16" id="ic-tradetype-onetouch"><g fill="none"><path d="M0 0h16v16H0z" class="transparent" /><path fill="var(--fill-color1)" d="M11.989 2.1h1.983V.07h1.96V2.1h-1.938v7.408c-1.081 0-1.983-.9-1.983-2.031V5.585l-6.94 7.107V9.785l5.52-5.654H8.745c-1.082 0-1.983-.9-1.983-2.031H.158V.07h11.83V2.1z" /><path fill="var(--fill-color2)" d="M.158 12.692v2.123H3.02l2.05-2.123z" /></g></symbol><symbol viewBox="0 0 16 16" id="ic-tradetype-put"><g fill="none"><path d="M0 0h16v16H0z" class="transparent" /><path fill="var(--fill-color1)" d="M8.631 14.862c0-1.131.901-2.031 1.983-2.031h1.848L4.912 5.1V2.215l8.97 9.185V9.508c0-1.131.901-2.031 1.983-2.031v7.408H8.63v-.023z" /><path fill="var(--fill-color2)" d="M.045 2.215V.092h2.817l2.05 2.123z" /></g></symbol><symbol viewBox="0 0 16 16" id="ic-tradetype-put-barrier"><g fill="none"><path d="M0 0h16v16H0z" class="transparent" /><path fill="var(--fill-color1)" d="M10.14 8.706l3.787 3.794v-2.326h1.983v5.713H8.248c0-1.084.879-1.987 1.983-1.987h2.276L7.324 8.706H.135V6.72H15.91v1.987h-5.77z" /><path fill="var(--fill-color2)" d="M3.515 2.113H.135V5.5h2.073V3.626L4.078 5.5h2.818z" /></g></symbol><symbol viewBox="0 0 16 16" id="ic-tradetype-putspread"><g fill="none"><path d="M0 0h16v16H0z" /><path fill="var(--fill-color1)" d="M0 16h6.56v-1.996H0zM0 2h16V.004H0zm15.984 7h-4.988L9 7.004h3.167l-.572-.58a1.981 1.981 0 010-2.818l4.389 4.396V9z" /><path fill="var(--fill-color2)" d="M7.741 16v-.343a1.653 1.653 0 011.676-1.653h1.524L5.829 8.937H0V6.941h6.651l5.654 5.653V10.31H14.3V16H7.74z" /></g></symbol><symbol viewBox="0 0 16 16" id="ic-tradetype-range"><g fill="none"><path fill="var(--fill-color1)" d="M7.82 9.014h-.023V7.031h4.237l-.541-.54a2.013 2.013 0 010-2.818l4.372 4.35-4.395 4.394a2.013 2.013 0 010-2.817l.586-.586H7.82zM4.71 6.22h1.983v3.56H4.71V6.22zM.135.158H15.91V2.14H.135V.158zm0 13.769H15.91v1.983H.135v-1.983z" /><path fill="var(--fill-color2)" d="M.135 7.008h3.516v1.984H.135z" /></g></symbol><symbol viewBox="0 0 16 16" id="ic-tradetype-resetcall"><g fill="none"><path d="M0 0h16v16H0z" /><path fill="var(--fill-color1)" d="M5 9.396l2-2.003V0H5zM0 0h4v1.996H0zm7 16v-5.59l-2 1.918V16zM8.87 0c0 1.188.964 2.151 2.152 2.151h1.253L7 7.393v3.016l6.849-6.774v1.36A2.15 2.15 0 0016 7.145V0H8.87z" /><path fill="var(--fill-color2)" d="M0 11h3.331l2.084-2H0z" /><path fill="var(--fill-color1)" d="M9 14h7v1.996H9zm-9 0h4v1.996H0z" /></g></symbol><symbol viewBox="0 0 16 16" id="ic-tradetype-resetput"><g fill="none"><path d="M0 0h16v16H0z" /><path fill="var(--fill-color1)" d="M5 6.604l2 2.003V16H5zM0 16h4v-1.996H0zM7 0v5.59L5 3.673V0zm1.87 16c0-1.188.964-2.151 2.152-2.151h1.253L7 8.607V5.591l6.849 6.774v-1.36A2.15 2.15 0 0116 8.855V16H8.87z" /><path fill="var(--fill-color2)" d="M0 5h3.331l2.084 2H0z" /><path fill="var(--fill-color1)" d="M9 2h7V.004H9zM0 2h4V.004H0z" /></g></symbol><symbol viewBox="0 0 16 16" id="ic-tradetype-runhigh"><g fill="none"><path d="M0 0h16v16H0z" /><path fill="var(--fill-color1)" d="M10 8h1.996v8H10zm-4 4h1.996v4H6z" /><path fill="var(--fill-color2)" d="M0 11.288h1.906l2.094-2H0z" /><path fill="var(--fill-color1)" d="M5.379 0A1.996 1.996 0 007.36 1.989h1.158L4 6.476v2.781L9.966 3.36v1.28c0 1.102.893 1.996 1.996 1.996V.03L5.379 0zM14 0h1.996v16H14zM2 14h1.996v1.996H2z" /></g></symbol><symbol viewBox="0 0 16 16" id="ic-tradetype-runlow"><g fill="none"><path d="M0 0h16v16H0z" /><path fill="var(--fill-color1)" d="M0 0h1.996v16H0zm4 5h1.996v11H4zm4 8h1.996v3H8zm4 1h1.996v1.996H12z" /><path fill="var(--fill-color2)" d="M4 2V0h1.799L8 2z" /><path fill="var(--fill-color1)" d="M9.364 11.28c0-1.098.89-1.989 1.988-1.989h1.158L8 4.781V2l5.966 5.897v-1.25a1.989 1.989 0 011.988-1.996v6.606l-6.59.023z" /></g></symbol><symbol viewBox="0 0 16 16" id="ic-tradetype-tickhigh"><g fill="none"><path d="M0 0h16v16H0z" /><path fill="var(--fill-color2)" d="M3 10.106l5-4.4V3L3 7.4z" /><path fill="var(--fill-color1)" d="M9.375 12c0-1.07.897-1.937 2.003-1.937h1.16L8 5.706V3l5.997 5.733V7.515c0-1.07.897-1.937 2.003-1.937V12H9.375zm.553-12L7.945 1.966 5.962 0H0v2h16V0zM0 14h16v2H0z" /><path fill="var(--fill-color2)" d="M0 8.38l3 1.726V7.399a1011.263 1011.263 0 00-3-1.768V8.38z" /></g></symbol><symbol viewBox="0 0 16 16" id="ic-tradetype-ticklow"><g fill="none"><path d="M0 0h16v16H0z" /><path fill="var(--fill-color2)" d="M3 5.894l5 4.4V13L3 8.6z" /><path fill="var(--fill-color1)" d="M9.375 4c0 1.07.897 1.937 2.003 1.937h1.16L8 10.294V13l5.997-5.733v1.218c0 1.07.897 1.937 2.003 1.937V4H9.375zm.553 12l-1.983-1.965L5.962 16H0v-2h16v2zM0 2h16V0H0z" /><path fill="var(--fill-color2)" d="M0 7.62l3-1.726v2.707a1011.263 1011.263 0 01-3 1.768V7.62z" /></g></symbol><symbol viewBox="0 0 16 16" id="ic-tradetype-upordown"><g fill="none"><path fill="var(--fill-color1)" d="M8.248 6.287l4.146-4.146h-1.51A1.64 1.64 0 019.24.496v-.36h6.536v5.047h-1.983V3.538l-2.75 2.75h4.778V8.27H.045V6.287h8.203zM.045 13.95H15.82v1.983H.045V13.95z" /><path fill="var(--fill-color2)" d="M4.44 10.118H.044v1.983h5.228L8.338 9.06H5.521z" /></g></symbol></defs></svg>